<svg width="30" height="31" viewBox="0 0 30 31" fill="none" xmlns="http://www.w3.org/2000/svg">
<g clip-path="url(#clip0_388_3195)">
<path d="M27.7854 0.858643H2.21458C1.62724 0.858643 1.06395 1.09196 0.648637 1.50728C0.233322 1.92259 0 2.48588 0 3.07323V28.6441C0 29.2314 0.233322 29.7947 0.648637 30.21C1.06395 30.6253 1.62724 30.8586 2.21458 30.8586H27.7854C28.3728 30.8586 28.9361 30.6253 29.3514 30.21C29.7667 29.7947 30 29.2314 30 28.6441V3.07323C30 2.48588 29.7667 1.92259 29.3514 1.50728C28.9361 1.09196 28.3728 0.858643 27.7854 0.858643ZM8.94167 26.4149H4.43125V12.0878H8.94167V26.4149ZM6.68333 10.1024C6.17171 10.0995 5.67239 9.94514 5.24842 9.65875C4.82444 9.37237 4.4948 8.96681 4.3011 8.49325C4.10739 8.0197 4.05831 7.49938 4.16004 6.99796C4.26177 6.49654 4.50975 6.03649 4.87269 5.67587C5.23564 5.31525 5.69727 5.07023 6.19933 4.97172C6.7014 4.87321 7.22139 4.92563 7.69369 5.12237C8.16599 5.31911 8.56942 5.65135 8.85308 6.07716C9.13674 6.50296 9.2879 7.00326 9.2875 7.51489C9.29233 7.85743 9.22814 8.19744 9.09877 8.51465C8.96939 8.83185 8.77748 9.11977 8.53446 9.36123C8.29145 9.60268 8.00231 9.79275 7.68428 9.92008C7.36625 10.0474 7.02584 10.1094 6.68333 10.1024ZM25.5667 26.4274H21.0583V18.6003C21.0583 16.292 20.0771 15.5795 18.8104 15.5795C17.4729 15.5795 16.1604 16.5878 16.1604 18.6586V26.4274H11.65V12.0982H15.9875V14.0836H16.0458C16.4813 13.2024 18.0063 11.6961 20.3333 11.6961C22.85 11.6961 25.5688 13.1899 25.5688 17.5649L25.5667 26.4274Z" fill="#0A66C2" fill-opacity="0.5"/>
</g>
<defs>
<clipPath id="clip0_388_3195">
<rect width="30" height="30" fill="white" transform="translate(0 0.858643)"/>
</clipPath>
</defs>
</svg>
