<svg width="24" height="25" viewBox="0 0 24 25" fill="none" xmlns="http://www.w3.org/2000/svg">
<g clip-path="url(#clip0_388_2629)">
<path d="M23 11.4997H1C0.447715 11.4997 0 11.9474 0 12.4997C0 13.052 0.447715 13.4997 1 13.4997H23C23.5523 13.4997 24 13.052 24 12.4997C24 11.9474 23.5523 11.4997 23 11.4997Z" fill="#374957"/>
<path d="M23 4.50031H1C0.447715 4.50031 0 4.94802 0 5.5003C0 6.05259 0.447715 6.5003 1 6.5003H23C23.5523 6.5003 24 6.05259 24 5.5003C24 4.94802 23.5523 4.50031 23 4.50031Z" fill="#374957"/>
<path d="M23 18.5H1C0.447715 18.5 0 18.9477 0 19.5C0 20.0523 0.447715 20.5 1 20.5H23C23.5523 20.5 24 20.0523 24 19.5C24 18.9477 23.5523 18.5 23 18.5Z" fill="#374957"/>
</g>
<defs>
<clipPath id="clip0_388_2629">
<rect width="24" height="24" fill="white" transform="translate(0 0.5)"/>
</clipPath>
</defs>
</svg>
